<?xml version="1.0" standalone="no"?>
<!DOCTYPE svg PUBLIC "-//W3C//DTD SVG 20010904//EN"
 "http://www.w3.org/TR/2001/REC-SVG-20010904/DTD/svg10.dtd">
<svg version="1.0" xmlns="http://www.w3.org/2000/svg"
 width="800.000000pt" height="800.000000pt" viewBox="0 0 800.000000 800.000000"
 preserveAspectRatio="xMidYMid meet">

<g transform="translate(0.000000,800.000000) scale(0.100000,-0.100000)"
fill="#000000" stroke="none">
<path d="M1634 7190 c-274 -40 -503 -263 -544 -527 -7 -46 -10 -620 -8 -1748
3 -1602 4 -1683 21 -1735 69 -205 204 -343 414 -423 l58 -22 1525 -3 c1412 -3
1527 -2 1557 14 34 18 63 67 63 106 0 29 -33 83 -59 98 -21 11 -21 17 -21 409
l0 398 39 11 c44 14 115 84 137 137 11 26 14 90 15 272 l0 238 27 -81 c61
-183 191 -282 405 -309 l47 -6 0 -106 c0 -120 14 -164 64 -194 43 -27 96 -24
140 6 31 21 202 168 317 272 l26 24 389 3 c324 3 397 6 437 19 139 47 244 137
301 257 28 61 30 73 37 230 3 91 5 545 4 1010 -2 771 -4 850 -19 905 -41 137
-142 244 -284 298 -56 21 -67 22 -757 25 -471 2 -721 -1 -765 -8 -95 -16 -179
-60 -240 -127 -58 -63 -80 -103 -107 -188 l-18 -60 -5 325 -5 325 -27 46 c-31
53 -89 94 -150 109 -51 11 -2935 12 -3014 0z m2986 -200 c20 -20 20 -33 20
-1514 0 -1425 -1 -1495 -18 -1516 l-18 -22 -1150 1 c-632 0 -1263 1 -1401 1
l-253 0 0 1535 0 1535 1400 0 c1387 0 1400 0 1420 -20z m-2993 -207 c-2 -37
-3 -9 -3 62 0 72 1 102 3 68 2 -34 2 -93 0 -130z m-177 113 c0 -2 -8 -10 -17
-17 -16 -13 -17 -12 -4 4 13 16 21 21 21 13z m177 -363 c-2 -21 -4 -4 -4 37 0
41 2 58 4 38 2 -21 2 -55 0 -75z m5079 40 c58 -31 103 -79 130 -138 22 -46 24
-63 24 -225 l0 -175 -931 3 -932 2 5 173 c4 145 8 179 25 218 36 80 97 136
173 160 14 4 349 7 745 6 l720 -2 41 -22z m-5079 -275 c-2 -35 -3 -7 -3 62 0
69 1 97 3 63 2 -35 2 -91 0 -125z m0 -110 c-3 -7 -5 -2 -5 12 0 14 2 19 5 13
2 -7 2 -19 0 -25z m0 -175 c-2 -16 -4 -5 -4 22 0 28 2 40 4 28 2 -13 2 -35 0
-50z m0 -80 c-3 -10 -5 -4 -5 12 0 17 2 24 5 18 2 -7 2 -21 0 -30z m0 -270
c-2 -38 -3 -7 -3 67 0 74 1 105 3 68 2 -38 2 -98 0 -135z m0 -120 c-3 -10 -5
-2 -5 17 0 19 2 27 5 18 2 -10 2 -26 0 -35z m0 -85 c-2 -13 -4 -3 -4 22 0 25
2 35 4 23 2 -13 2 -33 0 -45z m0 -70 c-3 -7 -5 -2 -5 12 0 14 2 19 5 13 2 -7
2 -19 0 -25z m0 -455 c-1 -76 -3 -14 -3 137 0 151 2 213 3 138 2 -76 2 -200 0
-275z m5140 375 c18 -10 45 -34 60 -55 27 -35 28 -42 33 -177 3 -78 4 -144 2
-148 -2 -5 -421 -8 -933 -8 l-929 0 0 198 c0 109 3 202 7 206 4 3 394 5 867 4
798 -3 863 -4 893 -20z m-5140 -635 c-2 -16 -4 -3 -4 27 0 30 2 43 4 28 2 -16
2 -40 0 -55z m0 -285 c-1 -40 -3 -10 -3 67 0 77 1 110 3 73 2 -37 2 -100 0
-140z m0 -361 c-2 -23 -3 -1 -3 48 0 50 1 68 3 42 2 -26 2 -67 0 -90z m0 -79
c-3 -8 -6 -5 -6 6 -1 11 2 17 5 13 3 -3 4 -12 1 -19z m2823 -608 l0 -400
-1417 2 -1418 3 -70 33 c-341 161 -310 634 50 748 31 10 340 13 1448 13 l1407
1 0 -400z"/>
<path d="M3053 6183 c9 -2 25 -2 35 0 9 3 1 5 -18 5 -19 0 -27 -2 -17 -5z"/>
<path d="M2916 5925 c-9 -26 -7 -32 5 -12 6 10 9 21 6 23 -2 3 -7 -2 -11 -11z"/>
<path d="M3187 5821 c-4 -17 -3 -21 5 -13 5 5 8 16 6 23 -3 8 -7 3 -11 -10z"/>
<path d="M2676 5245 c-9 -26 -7 -32 5 -12 6 10 9 21 6 23 -2 3 -7 -2 -11 -11z"/>
<path d="M3716 5187 c3 -10 9 -15 12 -12 3 3 0 11 -7 18 -10 9 -11 8 -5 -6z"/>
<path d="M2913 4983 c9 -2 23 -2 30 0 6 3 -1 5 -18 5 -16 0 -22 -2 -12 -5z"/>
<path d="M2998 4983 c23 -2 61 -2 85 0 23 2 4 4 -43 4 -47 0 -66 -2 -42 -4z"/>
<path d="M3163 4983 c9 -2 23 -2 30 0 6 3 -1 5 -18 5 -16 0 -22 -2 -12 -5z"/>
<path d="M2515 4799 c-4 -6 -5 -12 -2 -15 2 -3 7 2 10 11 7 17 1 20 -8 4z"/>
<path d="M5078 3666 c-55 -20 -111 -69 -140 -123 l-27 -49 -2 -519 c-1 -454 0
-525 14 -557 26 -61 63 -103 119 -134 l53 -29 554 -3 c473 -2 561 0 606 13 69
20 145 87 174 155 21 50 22 56 19 563 -3 503 -3 513 -25 552 -28 53 -78 99
-133 124 -44 20 -63 21 -610 20 -441 0 -573 -3 -602 -13z m1165 -166 c15 -12
31 -38 37 -58 6 -23 10 -208 10 -482 0 -498 0 -497 -70 -532 -32 -16 -79 -18
-543 -18 -545 0 -555 1 -591 51 -14 21 -16 76 -16 509 0 527 -2 507 55 538 14
8 186 11 556 12 525 0 537 0 562 -20z"/>
<path d="M5977 3278 c-14 -13 -103 -117 -197 -233 -95 -115 -174 -212 -176
-214 -3 -3 -55 46 -118 107 -97 96 -118 112 -145 112 -43 0 -91 -47 -91 -88 0
-40 37 -87 187 -234 137 -135 156 -145 210 -115 31 17 450 523 469 565 27 60
-13 122 -77 122 -25 0 -46 -7 -62 -22z"/>
<path d="M2140 1890 c-64 -64 31 -166 103 -110 56 44 24 130 -48 130 -22 0
-43 -8 -55 -20z"/>
<path d="M6100 1883 c-35 -44 -16 -104 37 -118 56 -14 102 30 94 90 -7 56 -94
75 -131 28z"/>
<path d="M703 1893 c-10 -4 -13 -88 -13 -374 l0 -369 70 0 70 0 0 124 0 124
113 4 c123 4 167 19 218 75 109 117 83 315 -52 383 -21 11 -69 24 -106 30 -70
10 -278 12 -300 3z m343 -155 c34 -34 44 -110 20 -156 -24 -47 -62 -62 -156
-62 l-80 0 0 126 0 126 95 -4 c87 -3 97 -5 121 -30z"/>
<path d="M1908 1893 c-17 -4 -18 -30 -18 -374 l0 -369 65 0 65 0 0 369 c0 327
-2 370 -16 375 -17 7 -69 6 -96 -1z"/>
<path d="M2918 1892 c-17 -3 -18 -29 -18 -373 l0 -369 65 0 65 0 0 163 c0 89
4 177 10 196 16 55 47 81 97 81 98 0 107 -19 113 -250 l5 -185 63 -3 63 -3 -3
219 -3 219 -28 42 c-61 91 -216 110 -291 35 l-26 -27 0 127 c0 94 -3 126 -12
127 -48 4 -85 4 -100 1z"/>
<path d="M3873 1894 c-10 -4 -13 -89 -13 -375 l0 -369 70 0 70 0 0 135 0 135
54 0 54 0 58 -97 c31 -54 68 -115 81 -135 l23 -38 75 0 c63 0 75 3 75 16 0 10
-34 73 -76 142 -42 68 -72 127 -67 131 4 4 25 19 46 35 107 78 114 261 13 354
-24 22 -61 46 -82 52 -41 12 -360 24 -381 14z m353 -158 c28 -28 34 -42 34
-75 0 -52 -21 -94 -55 -109 -14 -7 -66 -12 -115 -12 l-90 0 0 115 0 115 96 0
c96 0 96 0 130 -34z"/>
<path d="M1430 1690 c-116 -40 -178 -150 -167 -296 11 -152 99 -241 248 -252
123 -9 215 42 265 145 24 48 28 68 27 140 -1 69 -6 93 -28 138 -60 124 -201
175 -345 125z m169 -115 c42 -21 66 -78 65 -155 -1 -108 -45 -163 -130 -163
-80 0 -134 63 -134 158 0 114 44 175 126 175 25 0 58 -7 73 -15z"/>
<path d="M2505 1701 c-89 -22 -135 -76 -135 -158 0 -93 66 -150 200 -173 87
-15 112 -32 108 -73 -7 -68 -138 -73 -176 -6 -16 27 -21 29 -81 29 l-64 0 6
-39 c6 -50 31 -83 82 -113 35 -20 54 -23 140 -23 88 0 105 3 144 25 56 31 85
79 85 139 0 92 -51 137 -194 170 -94 22 -126 45 -116 84 13 54 117 58 161 5
23 -27 29 -29 82 -26 57 3 58 4 56 31 -7 95 -161 161 -298 128z"/>
<path d="M5188 1696 c-85 -30 -121 -77 -122 -157 0 -84 61 -139 185 -165 110
-23 139 -47 116 -94 -27 -54 -143 -47 -172 10 -15 29 -19 30 -80 30 -59 0 -65
-2 -65 -20 0 -31 25 -82 51 -107 37 -34 104 -53 183 -53 59 0 82 5 126 28 69
35 92 67 98 134 3 43 0 59 -20 88 -27 41 -90 74 -172 90 -78 15 -105 29 -112
57 -9 33 1 52 33 64 40 15 92 2 124 -32 24 -25 34 -29 83 -29 50 0 56 2 56 21
0 52 -57 114 -124 134 -61 18 -139 19 -188 1z"/>
<path d="M5701 1700 c-100 -24 -152 -121 -116 -215 21 -57 71 -88 176 -111 90
-20 119 -36 119 -69 0 -54 -73 -80 -137 -49 -21 11 -42 29 -48 42 -9 19 -17
22 -72 22 l-63 0 0 -31 c0 -45 35 -96 84 -122 34 -18 57 -22 141 -22 91 0 104
2 147 28 77 45 104 122 70 200 -16 36 -29 49 -73 70 -30 15 -85 33 -122 41
-97 20 -133 60 -89 99 43 39 142 24 157 -23 6 -19 13 -21 68 -18 61 3 62 3 60
31 -7 96 -160 161 -302 127z"/>
<path d="M6450 1695 c-58 -18 -109 -70 -117 -118 l-6 -37 64 0 c56 0 66 3 84
26 28 35 100 45 133 18 22 -18 46 -89 36 -106 -3 -4 -49 -8 -103 -8 -84 0
-104 -3 -148 -25 -60 -30 -83 -69 -83 -140 0 -103 72 -165 192 -165 49 0 128
31 128 50 0 6 5 10 10 10 6 0 10 -11 10 -25 0 -25 1 -26 63 -23 l62 3 0 205
c0 192 -2 208 -23 247 -32 61 -92 93 -184 99 -47 2 -89 -1 -118 -11z m192
-355 c-4 -53 -49 -90 -109 -90 -54 0 -83 21 -83 60 0 50 41 69 145 66 l50 -1
-3 -35z"/>
<path d="M7084 1696 c-17 -8 -41 -24 -53 -37 l-21 -23 0 26 c0 29 -16 38 -65
38 -69 0 -65 16 -65 -281 l0 -269 64 0 64 0 4 178 c4 185 9 210 52 244 24 20
74 23 110 7 47 -22 56 -60 56 -253 l0 -176 65 0 65 0 0 193 c0 105 -5 209 -10
229 -30 106 -164 168 -266 124z"/>
<path d="M2137 1693 c-4 -3 -7 -127 -7 -275 l0 -268 65 0 65 0 0 269 c0 236
-2 270 -16 275 -21 8 -99 8 -107 -1z"/>
<path d="M4503 1694 c-10 -4 -13 -55 -13 -203 0 -196 0 -198 28 -252 34 -67
88 -99 170 -99 58 0 128 29 140 58 5 13 8 10 12 -13 5 -29 7 -30 68 -33 l62
-3 -2 273 -3 273 -60 0 -60 0 -5 -180 c-4 -151 -8 -184 -23 -206 -40 -59 -129
-62 -171 -6 -19 26 -21 46 -26 210 l-5 182 -50 2 c-27 1 -56 0 -62 -3z"/>
<path d="M6101 1686 c-8 -9 -11 -90 -9 -272 l3 -259 65 0 65 0 3 259 c2 182
-1 263 -9 272 -7 8 -31 14 -59 14 -28 0 -52 -6 -59 -14z"/>
<path d="M3492 1509 c-21 -8 -23 -14 -20 -61 l3 -53 143 -3 142 -3 0 60 c0 44
-4 60 -16 65 -24 9 -226 6 -252 -5z"/>
</g>
</svg>
